<?xml version="1.0" encoding="UTF-8" standalone="no"?>
<svg
   xmlns:dc="http://purl.org/dc/elements/1.1/"
   xmlns:cc="http://creativecommons.org/ns#"
   xmlns:rdf="http://www.w3.org/1999/02/22-rdf-syntax-ns#"
   xmlns:svg="http://www.w3.org/2000/svg"
   xmlns="http://www.w3.org/2000/svg"
   xmlns:xlink="http://www.w3.org/1999/xlink"
   xmlns:sodipodi="http://sodipodi.sourceforge.net/DTD/sodipodi-0.dtd"
   xmlns:inkscape="http://www.inkscape.org/namespaces/inkscape"
   width="61.558548"
   height="128.00012"
   version="1.1"
   viewBox="0 0 16.287365 33.8667"
   id="svg6"
   sodipodi:docname="left.svg"
   inkscape:version="0.92.4 5da689c313, 2019-01-14">
  <metadata
     id="metadata12">
    <rdf:RDF>
      <cc:Work
         rdf:about="">
        <dc:format>image/svg+xml</dc:format>
        <dc:type
           rdf:resource="http://purl.org/dc/dcmitype/StillImage" />
      </cc:Work>
    </rdf:RDF>
  </metadata>
  <defs
     id="defs10">
    <linearGradient
       inkscape:collect="always"
       id="linearGradient826">
      <stop
         style="stop-color:#006500;stop-opacity:1"
         offset="0"
         id="stop822" />
      <stop
         style="stop-color:#21a600;stop-opacity:1"
         offset="1"
         id="stop824" />
    </linearGradient>
    <linearGradient
       inkscape:collect="always"
       xlink:href="#linearGradient826"
       id="linearGradient828"
       x1="21.171415"
       y1="280.04688"
       x2="8.79142"
       y2="280.03494"
       gradientUnits="userSpaceOnUse" />
  </defs>
  <sodipodi:namedview
     pagecolor="#ffffff"
     bordercolor="#666666"
     borderopacity="1"
     objecttolerance="10"
     gridtolerance="10"
     guidetolerance="10"
     inkscape:pageopacity="0"
     inkscape:pageshadow="2"
     inkscape:window-width="1346"
     inkscape:window-height="698"
     id="namedview8"
     showgrid="false"
     inkscape:zoom="3.6874965"
     inkscape:cx="32.882136"
     inkscape:cy="75.283747"
     inkscape:window-x="10"
     inkscape:window-y="60"
     inkscape:window-maximized="0"
     inkscape:current-layer="svg6" />
  <g
     transform="translate(-8.7896505,-263.1333)"
     fill="#004b00"
     id="g4"
     style="fill-opacity:1;fill:url(#linearGradient828)">
    <path
       d="m24.586764 263.53662c-0.20699 0.22333-0.849753 0.88789-1.421703 1.48161-0.577397 0.5992-1.149346 1.19293-1.27463 1.32912-0.130731 0.13617-0.751706 0.78438-1.383574 1.43803-0.631867 0.65367-1.296418 1.34544-1.476174 1.5361-0.34317 0.35951-2.336822 2.42398-2.750805 2.8543-0.370406 0.38674-2.282352 2.37496-2.669098 2.77805-0.185202 0.19609-0.626421 0.6482-0.975038 1.00772-0.599185 0.62641-2.565602 2.67453-3.1266569 3.26283-0.147072 0.15252-0.375853 0.39219-0.512032 0.53382-0.228779 0.23422-0.239673 0.26146-0.168861 0.36495 0.04358 0.06 0.452113 0.50115 0.898779 0.9696 0.8443059 0.88243 1.0349549 1.08397 1.8847089 1.9773 0.272357 0.28326 0.975038 1.01862 1.563329 1.63415 0.593738 0.61553 1.176582 1.2256 1.307314 1.36179 0.125283 0.13617 0.691786 0.72447 1.252841 1.30731 0.561056 0.58285 1.111216 1.16024 1.220159 1.28007 0.179756 0.19065 1.530646 1.60146 2.374953 2.47846 1.067639 1.11121 2.353164 2.45665 2.51113 2.62006 0.103497 0.10895 0.637316 0.67 1.192924 1.2474s1.220159 1.27464 1.481622 1.54699c0.261461 0.27235 0.490242 0.4739 0.51203 0.45211 0.04358-0.0435 0.06537-18.46035 0.02179-19.99644l-0.02723-0.9696-0.653655 0.67545c-0.833413 0.86064-2.603733 2.71267-2.941455 3.06674l-0.256016 0.27235 1.149347 0.0272 1.149345 0.0272-0.152519 0.19065c-0.08715 0.1035-0.740811 0.9478-1.459833 1.87926-0.713576 0.92603-1.329103 1.7213-1.367233 1.75944-0.03813 0.0381-0.07081 0.0872-0.07081 0.10893-0.0054 0.0218-0.08715 0.13618-0.19065 0.25602l-0.19065 0.21789-0.386746-0.40854c-0.212439-0.22334-0.806176-0.84975-1.323655-1.38357-0.512031-0.53382-1.051297-1.10033-1.192924-1.25285-0.147073-0.15251-0.512031-0.52837-0.811624-0.83341-0.299592-0.30503-0.539266-0.57739-0.528371-0.61008 0.01634-0.0435 0.615526-0.67544 1.846579-1.96097 0.561056-0.58829 2.020889-2.11893 2.233328-2.34772 0.125283-0.13072 0.599185-0.63186 1.051297-1.11121 0.457559-0.4739 0.947801-0.99137 1.089427-1.14389 0.501138-0.52838 1.971865-2.06993 2.516578-2.63642l0.544714-0.56651-0.0054-3.27372c-0.01089-3.93829-0.01089-3.85113-0.05992-3.85113-0.02723 5e-3 -0.212439 0.1852-0.424877 0.40308z"
       fill="#004b00"
       stroke-width=".00544714"
       id="path2"
       style="fill-opacity:1;fill:url(#linearGradient828)" />
  </g>
</svg>
