<?xml version="1.0" standalone="no"?>
<!DOCTYPE svg PUBLIC "-//W3C//DTD SVG 20010904//EN"
 "http://www.w3.org/TR/2001/REC-SVG-20010904/DTD/svg10.dtd">
<svg version="1.0" xmlns="http://www.w3.org/2000/svg"
 width="700.000000pt" height="700.000000pt" viewBox="0 0 700.000000 700.000000"
 preserveAspectRatio="xMidYMid meet">
<metadata>
Created by potrace 1.11, written by Peter Selinger 2001-2013
</metadata>
<g transform="translate(0.000000,700.000000) scale(0.100000,-0.100000)"
fill="#000000" stroke="none">
<path d="M3188 6818 c-91 -95 -189 -198 -218 -228 -29 -30 -155 -161 -280
-290 -125 -129 -260 -269 -299 -310 -40 -41 -163 -169 -274 -284 -111 -115
-220 -228 -242 -251 -22 -23 -140 -145 -261 -271 -122 -126 -239 -247 -259
-269 -21 -22 -138 -143 -260 -270 -122 -126 -251 -259 -285 -295 -65 -68 -423
-440 -597 -619 -56 -59 -127 -133 -158 -165 l-56 -60 68 -70 c84 -86 112 -115
295 -307 81 -85 182 -190 225 -235 72 -75 406 -423 463 -484 14 -14 113 -118
221 -231 108 -112 229 -238 268 -279 107 -112 393 -410 503 -524 53 -56 120
-126 148 -156 28 -30 104 -109 168 -176 114 -117 413 -429 521 -543 62 -66
223 -233 364 -379 55 -56 104 -104 110 -105 11 -2 18 1166 7 1212 -5 21 -6 21
-39 -13 l-35 -36 0 -485 c0 -425 -4 -514 -18 -476 -1 5 -89 98 -194 207 -106
110 -211 219 -234 244 -23 25 -124 130 -224 233 -99 104 -203 212 -230 240
-27 29 -130 137 -230 241 -99 104 -201 210 -226 236 -25 26 -128 134 -230 240
-102 106 -207 215 -234 244 -27 28 -130 136 -230 240 -99 104 -201 210 -226
236 -25 26 -128 134 -230 240 -102 106 -198 207 -215 225 -16 17 -120 125
-230 239 -110 114 -200 214 -200 221 0 7 90 106 200 220 110 114 215 224 234
244 19 20 131 137 251 261 119 124 234 244 256 266 21 23 125 130 229 239 105
109 214 223 244 254 30 31 152 157 271 281 120 124 232 241 250 260 18 19 124
130 235 245 112 116 231 239 265 275 34 36 112 117 174 181 61 63 205 213 320
332 115 119 212 215 215 212 3 -3 6 -317 7 -696 2 -380 4 -693 7 -695 2 -2 19
11 38 31 l34 34 1 771 c0 423 -3 770 -6 770 -3 0 -80 -78 -172 -172z"/>
<path d="M3642 6369 l0 -622 36 37 37 36 1 483 c1 265 2 483 3 485 1 4 35 -31
284 -292 89 -93 182 -191 207 -217 25 -25 128 -133 230 -239 102 -106 214
-223 250 -260 68 -71 367 -384 434 -454 21 -23 129 -135 240 -250 247 -257
400 -416 457 -477 24 -26 125 -131 224 -234 99 -103 205 -213 235 -245 108
-112 426 -444 460 -480 19 -21 58 -61 87 -91 l52 -54 -75 -80 c-42 -44 -171
-179 -287 -300 -117 -120 -259 -268 -317 -329 -117 -122 -122 -127 -416 -432
-116 -121 -253 -263 -305 -318 -105 -110 -142 -148 -419 -436 -107 -111 -221
-230 -254 -263 -193 -203 -571 -596 -848 -882 -69 -72 -150 -156 -179 -187
-29 -32 -55 -58 -58 -58 -3 0 -6 313 -7 695 0 382 -4 698 -8 702 -4 4 -20 -7
-35 -25 l-29 -32 0 -770 c0 -424 2 -770 4 -770 3 0 15 11 27 24 12 13 119 124
237 246 118 123 231 240 250 260 19 20 143 149 276 286 133 137 267 276 298
309 94 97 466 483 531 550 56 57 419 435 510 530 22 23 137 142 255 264 118
123 241 251 274 285 32 33 156 162 276 286 313 325 392 408 406 429 15 21 25
8 -205 246 -97 101 -305 318 -527 551 -27 29 -135 141 -240 250 -105 110 -213
222 -240 251 -27 28 -133 138 -235 245 -103 106 -211 218 -240 249 -30 31
-133 139 -229 239 -96 101 -197 206 -224 234 -26 28 -139 145 -250 260 -110
115 -217 226 -236 246 -113 118 -259 271 -435 454 -110 114 -216 226 -236 247
-20 21 -39 39 -42 39 -3 0 -6 -280 -5 -621z"/>
<path d="M3135 6536 c-38 -41 -156 -163 -261 -272 -106 -110 -211 -219 -234
-244 -24 -25 -138 -144 -254 -264 -116 -120 -238 -247 -271 -282 -63 -66 -429
-445 -505 -524 -68 -71 -419 -436 -490 -510 -34 -36 -115 -119 -179 -185 -110
-115 -471 -491 -574 -599 -27 -28 -69 -72 -94 -98 -42 -43 -44 -48 -31 -67 8
-11 83 -92 165 -178 155 -162 190 -199 346 -363 50 -52 179 -187 287 -300 109
-113 216 -225 240 -250 23 -25 127 -133 230 -240 103 -107 204 -213 224 -235
33 -35 281 -294 436 -455 196 -204 432 -451 461 -481 19 -20 117 -123 219
-229 102 -106 224 -234 272 -284 48 -50 90 -87 94 -83 8 8 12 3389 4 3671 l-5
178 -120 -124 c-153 -158 -478 -498 -540 -563 l-47 -50 211 -5 211 -5 -28 -35
c-16 -19 -136 -174 -268 -345 -131 -170 -244 -316 -251 -323 -7 -7 -13 -16
-13 -20 -1 -4 -16 -25 -35 -47 l-35 -40 -71 75 c-39 41 -148 156 -243 254 -94
98 -193 202 -219 230 -27 28 -94 97 -149 153 -55 56 -99 106 -97 112 3 8 113
124 339 360 103 108 371 389 410 431 23 24 110 116 193 204 84 87 174 182 200
210 92 97 362 380 462 484 l100 104 -1 601 c-2 723 -2 707 -11 707 -5 -1 -39
-34 -78 -74z"/>
<path d="M3788 6604 c-4 -8 -4 -3814 1 -3839 1 -5 27 17 57 50 51 55 324 339
538 560 48 50 91 98 96 107 9 15 -6 17 -192 18 -111 0 -204 3 -206 5 -3 2 42
64 98 137 57 73 197 255 312 404 l208 272 68 -71 c111 -117 139 -147 328 -343
100 -104 200 -209 224 -234 23 -25 71 -74 105 -110 l63 -66 -36 -41 c-33 -36
-127 -135 -478 -502 -60 -64 -142 -150 -181 -191 -39 -41 -93 -98 -120 -126
-26 -28 -125 -131 -219 -230 -94 -98 -186 -195 -204 -214 -18 -19 -103 -109
-189 -199 -225 -236 -224 -235 -250 -264 l-24 -27 -4 -662 -5 -663 24 20 c13
11 25 23 28 27 5 6 119 125 339 353 69 72 218 227 331 345 113 117 264 275
337 349 72 75 148 154 169 176 20 22 128 135 239 250 112 116 220 229 242 251
21 23 128 135 238 248 110 114 227 235 259 269 33 34 114 118 180 188 583 604
606 629 606 644 0 10 -42 55 -340 366 -91 94 -185 193 -210 219 -48 51 -225
236 -666 696 -95 99 -196 204 -225 234 -200 210 -402 420 -444 464 -27 29
-133 139 -235 246 -102 106 -205 214 -230 240 -25 26 -124 129 -220 230 -356
372 -407 423 -412 414z"/>
<path d="M3590 5599 c-58 -61 -120 -127 -139 -147 -18 -20 -70 -75 -115 -122
-44 -47 -151 -159 -236 -249 -85 -91 -198 -210 -250 -265 -52 -54 -106 -111
-120 -126 -84 -89 -321 -340 -355 -375 -22 -23 -101 -106 -175 -185 -74 -78
-155 -164 -180 -190 -153 -161 -317 -335 -360 -381 l-50 -53 33 -35 c17 -19
46 -48 62 -65 17 -17 122 -128 235 -245 113 -118 239 -249 281 -292 l77 -79
16 25 c9 14 73 98 142 187 163 210 159 205 254 326 44 56 75 102 68 103 -7 1
-107 1 -221 1 -114 1 -206 4 -205 9 2 4 105 112 229 241 124 128 282 291 350
362 68 71 176 182 239 248 l115 119 2 -1561 c1 -859 3 -1564 6 -1566 4 -4 50
41 144 142 21 22 115 121 208 219 172 181 285 300 346 366 19 20 102 108 185
195 83 88 166 175 184 194 18 19 94 100 170 180 76 80 157 165 180 190 43 46
286 303 375 395 28 29 105 111 171 181 67 71 125 132 129 136 12 12 -5 31
-240 273 -126 130 -276 285 -333 343 l-102 107 -23 -26 c-19 -23 -188 -240
-315 -408 -42 -55 -57 -75 -121 -155 -17 -21 -29 -41 -27 -45 2 -3 99 -6 215
-5 116 0 211 -2 211 -6 0 -3 -39 -47 -87 -97 -49 -49 -141 -146 -207 -214 -65
-68 -207 -215 -315 -327 -108 -112 -223 -232 -257 -268 -34 -35 -63 -64 -65
-64 -2 0 -4 660 -4 1468 0 1495 -1 1652 -13 1652 -4 0 -54 -50 -112 -111z m52
-1638 c1 -858 4 -1561 8 -1561 3 0 38 35 79 77 40 43 180 188 310 322 130 134
310 320 401 414 91 94 190 196 220 227 30 31 85 87 122 126 l68 70 -95 1 c-52
1 -158 2 -236 2 l-140 1 48 63 c51 67 271 347 283 360 6 7 132 -116 334 -327
27 -28 91 -94 142 -146 l93 -95 -42 -46 c-35 -39 -179 -192 -362 -384 -22 -23
-103 -109 -180 -190 -77 -82 -153 -162 -170 -180 -38 -39 -280 -296 -332 -351
-38 -41 -263 -279 -356 -378 -27 -28 -103 -109 -170 -180 -67 -71 -161 -170
-209 -220 l-87 -91 -2 110 c0 61 -2 761 -3 1557 -1 796 -4 1450 -7 1453 -5 5
-115 -106 -541 -546 -40 -41 -193 -199 -340 -350 -308 -318 -320 -330 -316
-335 2 -2 106 -4 231 -5 175 -1 225 -4 219 -13 -11 -20 -323 -416 -327 -416
-3 0 -73 71 -210 215 -37 39 -130 134 -207 212 -102 104 -137 146 -131 157 7
12 112 125 325 348 26 28 103 109 170 180 68 72 139 147 158 168 19 20 103
108 185 195 83 87 164 173 180 190 166 177 453 481 545 576 137 143 296 312
314 335 11 13 21 22 23 20 2 -2 4 -706 5 -1565z"/>
</g>
</svg>
